<?xml version="1.0" standalone="no"?>
<!DOCTYPE svg PUBLIC "-//W3C//DTD SVG 1.1//EN" "http://www.w3.org/Graphics/SVG/1.1/DTD/svg11.dtd" >
<svg xmlns="http://www.w3.org/2000/svg">
<metadata>
Created by FontForge 20120731 at Thu May 14 19:49:18 2015
 By Ads
</metadata>
<defs>
<font id="iconfont" horiz-adv-x="1024" >
  <font-face 
    font-family="iconfont"
    font-weight="500"
    font-stretch="normal"
    units-per-em="1024"
    panose-1="2 0 6 3 0 0 0 0 0 0"
    ascent="812"
    descent="-212"
    x-height="792"
    bbox="0 -212 1024 812.059"
    underline-thickness="50"
    underline-position="-100"
    unicode-range="U+0078-E62B"
  />
<missing-glyph horiz-adv-x="374" 
d="M34 0v682h272v-682h-272zM68 34h204v614h-204v-614z" />
    <glyph glyph-name=".notdef" horiz-adv-x="374" 
d="M34 0v682h272v-682h-272zM68 34h204v614h-204v-614z" />
    <glyph glyph-name=".null" horiz-adv-x="0" 
 />
    <glyph glyph-name="nonmarkingreturn" horiz-adv-x="341" 
 />
    <glyph glyph-name="x" unicode="x" horiz-adv-x="1001" 
d="M281 543q-27 -1 -53 -1h-83q-18 0 -36.5 -6t-32.5 -18.5t-23 -32t-9 -45.5v-76h912v41q0 16 -0.5 30t-0.5 18q0 13 -5 29t-17 29.5t-31.5 22.5t-49.5 9h-133v-97h-438v97zM955 310v-52q0 -23 0.5 -52t0.5 -58t-10.5 -47.5t-26 -30t-33 -16t-31.5 -4.5q-14 -1 -29.5 -0.5
t-29.5 0.5h-32l-45 128h-439l-44 -128h-29h-34q-20 0 -45 1q-25 0 -41 9.5t-25.5 23t-13.5 29.5t-4 30v167h911zM163 247q-12 0 -21 -8.5t-9 -21.5t9 -21.5t21 -8.5q13 0 22 8.5t9 21.5t-9 21.5t-22 8.5zM316 123q-8 -26 -14 -48q-5 -19 -10.5 -37t-7.5 -25t-3 -15t1 -14.5
t9.5 -10.5t21.5 -4h37h67h81h80h64h36q23 0 34 12t2 38q-5 13 -9.5 30.5t-9.5 34.5q-5 19 -11 39h-368zM336 498v228q0 11 2.5 23t10 21.5t20.5 15.5t34 6h188q31 0 51.5 -14.5t20.5 -52.5v-227h-327z" />
    <glyph glyph-name="uniE600" unicode="&#xe600;" 
d="M513.5 461.5q-30.5 -31.5 -29.5 -75.5t33 -75q20 -20 48 -26.5t55 1.5t47 29q15 15 22.5 35t7 40.5t-9 40t-24.5 34.5q-31 30 -75 29t-74.5 -32.5zM537 439q21 22 51.5 22.5t52.5 -20.5t22.5 -51.5t-20.5 -52.5q-14 -14 -32.5 -19.5t-37.5 -1t-34 18.5q-22 21 -22.5 51.5
t20.5 52.5zM754 560q-15 13 -31.5 24t-33.5 19t-35 13l-6 1q-7 0 -11.5 -4.5t-4.5 -11.5q0 -13 13 -16q24 -7 46 -19t40 -30q61 -59 63 -143.5t-56 -145.5q-45 -47 -107.5 -59.5t-118.5 12.5l-30 16l-117 -122l24 -23q12 -11 0.5 -23t-22.5 0l-24 22l-45 -47q-35 -3 -47 7
q-12 13 -12 49l183 193l-17 29q-13 28 -17 58.5t0 60t18 58t36 51.5q11 11 22.5 20t24 16.5t25.5 12.5q5 2 7.5 6t2.5 9q0 4 -2 8t-6 6t-8 2q-3 0 -6 -1q-12 -4 -23 -10t-21.5 -13t-20 -15.5t-18.5 -17.5q-36 -38 -52.5 -85.5t-12.5 -97t27 -93.5l-184 -193q0 -7 1.5 -18
t9 -33.5t17.5 -32.5q7 -7 17 -10.5t20 -4.5t18.5 -1t14.5 1h5l44 40q10 -9 22.5 -12t25 0.5t21.5 13.5q14 14 13.5 34.5t-14.5 34.5l76 79q66 -33 143 -19.5t130 69.5q68 71 66 169.5t-73 166.5z" />
    <glyph glyph-name="uniE601" unicode="&#xe601;" 
d="M463 297l-10 8q43 46 76 46q9 0 12 -2q2 -2 2.5 -4t0.5 -5q0 -8 -15 -57q-25 -86 -25 -101q0 -8 5 -8q9 0 39 29l9 -9q-31 -29 -46.5 -38t-25.5 -9q-9 0 -13 6t-4 13q0 27 35 144q2 6 2 9t-1.5 4t-3.5 1q-9 0 -37 -27zM531 429q0 5 2 9.5t5 7.5q8 7 17 7q7 0 11.5 -5.5
t4.5 -12.5q0 -10 -7 -17.5t-16 -7.5q-8 0 -12 5q-3 3 -4 6.5t-1 7.5zM512 613q64 0 122 -24q56 -24 99.5 -67.5t67.5 -99.5q12 -29 18 -59.5t6 -62.5q0 -64 -24 -122q-12 -28 -29 -53t-39 -46q-43 -44 -99 -68q-19 -8 -39.5 -13.5t-41 -8t-41.5 -2.5q-64 0 -122 24
q-56 24 -99.5 67.5t-67.5 99.5q-24 58 -24 122t24 122q12 28 29 53t38.5 46.5t46.5 38.5t53 29q29 12 59.5 18t62.5 6zM512 638q-69 0 -131.5 -27t-107.5 -72t-72 -107.5t-27 -131.5q0 -92 45.5 -169.5t123 -123t169.5 -45.5q69 0 131.5 27t107.5 72t72 107.5t27 131.5
q0 92 -45.5 169.5t-123 123t-169.5 45.5z" />
    <glyph glyph-name="uniE602" unicode="&#xe602;" 
d="M511 582h4q34 0 66 -6t63 -17q58 -22 103 -62q11 -9 21 -19.5t18.5 -22t15.5 -23t13 -24.5q25 -51 24 -106q-1 -112 -95 -191q-45 -38 -103 -58q-30 -11 -62 -16.5t-66 -5.5q-2 0 -4 1h-17h-1q-35 1 -80 11q-42 9 -69 9h-11h-1q-28 0 -114 -21q32 62 32 94q0 10 -15 34
q-11 17 -18 28.5t-15.5 33t-10.5 39.5v1v1q-4 24 -4 47q0 11 1 22t3 21.5t5.5 21t7.5 21t9 20.5q24 49 69 86q45 39 103 60q61 21 128 21zM511 607q-48 0 -93 -10.5t-83 -29.5t-70.5 -46.5t-55.5 -60t-35.5 -71.5t-13.5 -79q0 -27 5 -52q2 -29 17 -59.5t28.5 -50.5t13.5 -23
q-1 -32 -57 -132l118 29q31 6 45 6h12q19 -1 82 -13q34 -7 66 -7q9 -1 18 -1h5q95 0 175 39t127.5 106.5t48.5 148.5q1 82 -45.5 152t-127 111.5t-175.5 42.5h-5zM682 335q6 0 11 -1.5t9.5 -5t7.5 -7.5t5 -9.5t2 -11.5q0 -7 -3 -13.5t-7.5 -11.5t-11 -7.5t-13.5 -2.5
q-10 0 -18 4.5t-13 13t-5 17.5q0 15 10.5 25t25.5 10zM682 360q-25 0 -42.5 -17.5t-17.5 -42.5t17.5 -42.5t42.5 -17.5q12 0 23 5t19 13t13 19t5 23q0 25 -17.5 42.5t-42.5 17.5zM505 335q10 0 18 -4.5t13 -12.5t5 -18q0 -15 -10.5 -25t-25.5 -10q-5 0 -10.5 1.5t-10 5
t-7.5 8t-5 9.5t-2 11q0 15 10.5 25t24.5 10zM505 360q-24 0 -42 -17.5t-18 -42.5t18 -42.5t42 -17.5q16 0 30 8t22 22t8 30t-8 30t-22 22t-30 8zM339 335q7 0 13.5 -2.5t11 -7.5t7.5 -11.5t3 -13.5q0 -15 -10.5 -25t-24.5 -10q-8 0 -14.5 2.5t-11 7.5t-7.5 11.5t-3 13.5
q0 15 10.5 25t25.5 10zM339 360q-25 0 -42.5 -17.5t-17.5 -42.5t17.5 -42.5t42.5 -17.5q16 0 29.5 8t21.5 22t8 30q0 37 -33 54q-13 6 -26 6z" />
    <glyph glyph-name="uniE603" unicode="&#xe603;" 
d="M574 147q24 26 24 62q0 15 -4.5 29t-13 25.5t-19.5 20t-25 13t-29 4.5q-12 0 -23 -3t-21 -8.5t-18 -12.5q-26 -25 -29 -60v-1v-1v-24q0 -2 2 -2h23q1 0 1.5 0.5t0.5 1.5v6v8v4q0 27 19 45.5t45 18.5q17 0 31.5 -8.5t23 -23.5t8.5 -32q0 -11 -3.5 -21.5t-10.5 -19
t-16.5 -14t-19.5 -8.5h-1q-2 0 -3 1t-1 3v41q0 1 -0.5 1.5t-1.5 0.5h-24q-2 0 -2 -2v-72q0 -2 2 -2h24q1 0 1 1q17 1 32.5 8.5t27.5 20.5zM244 47q0 -25 17 -42.5t41 -17.5h420q24 0 41 17.5t17 42.5v6v12v152v4v145q0 16 -8 29.5t-21.5 22t-28.5 8.5h-47h-1h-5q-2 0 -3 1
t-1 3v47q0 56 -39 96q-19 19 -43.5 29.5t-50.5 10.5h-14h-14q-11 0 -21 -1.5t-20 -5t-19 -8t-17.5 -11t-16.5 -13.5q-39 -40 -39 -96v-1q0 -4 2 -6.5t5 -4.5t6 -2t5.5 1t4 3t2.5 4t1 5q1 0 1 1q2 46 33 77t74 31h13h13q29 0 53.5 -15.5t39 -42t14.5 -57.5v-41q0 -2 -1 -3
t-3 -1h-243v0h-1h-35h-1h-52q-24 0 -41 -18t-17 -42v-319zM269 362q0 10 5 19t13.5 14t18.5 5h412q16 0 26.5 -11t10.5 -27v-141v-4v-164v-3q0 -15 -10.5 -26.5t-26.5 -11.5h-412q-16 0 -26.5 11.5t-10.5 26.5v312z" />
    <glyph glyph-name="uniE604" unicode="&#xe604;" 
d="M353 466q-41 0 -70.5 -29t-29.5 -71q0 -9 1.5 -18.5t5 -18t8.5 -16.5q13 -20 33 -32q-15 -5 -28.5 -14t-24.5 -20q-21 -21 -32 -48t-11 -56q0 -4 1.5 -6.5t4.5 -4t6 -1.5q5 0 8.5 3.5t3.5 8.5q0 51 36 87q35 35 84 36h4q27 0 50 13.5t36.5 36.5t13.5 50q0 42 -29.5 71
t-70.5 29zM354 291h-1h-4q-30 1 -51 23t-21 52q0 32 22.5 54t53.5 22t53.5 -22t22.5 -54q0 -30 -22 -52.5t-53 -22.5zM457 247q-3 4 -8 4t-9 -4q-8 -8 0 -17q12 -11 20 -25t12.5 -30t4.5 -32q0 -5 3.5 -8.5t8.5 -3.5q2 0 4.5 1t4 2.5t2.5 3.5t1 5q-1 61 -44 104zM814 297
h-164q-6 0 -10.5 4t-4.5 10t4.5 10t10.5 4h164q3 0 6.5 -1.5t5.5 -5t2 -7.5t-2 -7t-5.5 -5t-6.5 -2zM814 389h-260q-4 0 -7.5 2t-5.5 5t-2 7q0 6 4.5 10.5t10.5 4.5h260q3 0 6.5 -2t5.5 -5.5t2 -7.5q0 -6 -4.5 -10t-9.5 -4zM872 545q8 0 14.5 -6t6.5 -15v-448q0 -6 -3 -10.5
t-8 -7.5t-10 -3h-720q-8 0 -14.5 6t-6.5 15v448q0 6 3 10.5t8 7.5t10 3h720zM872 574h-720q-20 0 -35 -14.5t-15 -35.5v-448q0 -13 7 -24.5t18.5 -18.5t24.5 -7h720q20 0 35 14.5t15 35.5v448q0 13 -7 24.5t-18.5 18.5t-24.5 7z" />
    <glyph glyph-name="uniE605" unicode="&#xe605;" 
d="M512 482q-78 0 -133.5 -55.5t-55.5 -134t55.5 -134t133.5 -55.5q51 0 95 25.5t69 69t25 95.5q0 78 -55.5 133.5t-133.5 55.5zM512 125q-69 0 -118 49t-49 118.5t49 118.5t118 49q27 0 52.5 -8.5t46 -24t36 -36t24 -46t8.5 -52.5q0 -81 -63 -132q-46 -35 -104 -36z
M830 512h-140q-4 0 -20 24q-4 7 -6.5 10.5t-6.5 9t-7.5 8.5t-8.5 5t-10 2h-238q-8 0 -16 -6t-12 -11.5t-12 -17.5q-15 -24 -19 -24h-140q-8 0 -15.5 -3.5t-13 -9t-9 -13t-3.5 -15.5v-401q0 -11 5.5 -20.5t15 -15t20.5 -5.5h636q17 0 29 12t12 29v401q0 17 -12 29t-29 12z
M830 51h-636q-7 0 -12.5 5.5t-5.5 13.5v401q0 8 5.5 13.5t12.5 5.5h140q11 0 19.5 8.5t18.5 25.5q16 25 21 25h238q2 0 4.5 -2.5t6 -7t5.5 -7.5t5 -8q5 -8 8 -12.5t8.5 -10.5t10.5 -8.5t11 -2.5h140q5 0 9 -2.5t6.5 -7t2.5 -9.5v-401q0 -3 -0.5 -5.5t-1.5 -4.5t-3 -4l-4 -2
q-2 -2 -4.5 -2.5t-4.5 -0.5zM274 441h-15q-12 0 -20.5 -8.5t-8.5 -21.5q0 -8 4 -14.5t10.5 -10.5t14.5 -4h15q13 0 21.5 8.5t8.5 21t-8.5 21t-21.5 8.5zM274 441z" />
    <glyph glyph-name="uniE606" unicode="&#xe606;" 
d="M718 190q-11 12 -23 0q-5 -4 -4.5 -11t4.5 -11q19 -19 33 -40t23.5 -44.5t14.5 -48.5t5 -51q0 -4 2 -8t6 -6t8 -2q7 0 12 5t5 11q0 121 -86 206zM512 632q-53 0 -97.5 -26t-70.5 -71t-26 -97q0 -57 29.5 -104t78.5 -71q-69 -21 -120 -73q-86 -85 -86 -206q0 -6 5 -11
t11.5 -5t11.5 5t5 11q0 108 76 184q73 72 176 75h7q53 0 97.5 26t70.5 71t26 98q0 80 -57 137t-137 57zM515 276h-3h-4h-3q-65 3 -110 50t-45 112q0 43 21.5 80.5t59 59.5t81.5 22q67 0 114.5 -47.5t47.5 -114.5t-46.5 -114t-112.5 -48zM515 276z" />
    <glyph glyph-name="uniE607" unicode="&#xe607;" 
d="M747 65zM668 65q0 33 23 56.5t56 23.5t56.5 -23.5t23.5 -56.5t-23.5 -56.5t-56.5 -23.5t-56 23.5t-23 56.5zM512 65zM432 65q0 33 23.5 56.5t56.5 23.5t56.5 -23.5t23.5 -56.5t-23.5 -56.5t-56.5 -23.5t-56.5 23.5t-23.5 56.5zM277 127q16 0 30.5 -8.5t22.5 -22.5t8 -31
t-8 -31t-22.5 -22t-30.5 -8q-26 0 -44 18t-18 43q0 10 3 19.5t9 17t13.5 13t17 9t19.5 3.5zM277 145q-33 0 -56.5 -23.5t-23.5 -56.5t23.5 -56.5t56.5 -23.5q21 0 39.5 11t29 29t10.5 40q0 33 -23 56.5t-56 23.5zM747 362q17 0 31 -8.5t22.5 -22.5t8.5 -30q0 -26 -18 -44
t-44 -18q-16 0 -30.5 8.5t-22.5 22.5t-8 31q0 25 18 43t43 18zM747 380q-33 0 -56 -23t-23 -56q0 -17 6 -31.5t17 -25.5t25.5 -17t30.5 -6q33 0 56.5 23t23.5 56.5t-23.5 56.5t-56.5 23zM512 301zM432 300.5q0 33.5 23.5 56.5t56.5 23t56.5 -23t23.5 -56.5t-23.5 -56.5
t-56.5 -23t-56.5 23t-23.5 56.5zM277 362q16 0 30.5 -8.5t22.5 -22.5t8 -30.5t-8 -30.5t-22.5 -22.5t-30.5 -8.5q-26 0 -44 18t-18 43.5t18 43.5t44 18zM277 380q-33 0 -56.5 -23t-23.5 -56.5t23.5 -56.5t56.5 -23q21 0 39.5 10.5t29 29t10.5 40.5q0 33 -23 56t-56 23z
M747 596q17 0 31 -8t22.5 -22t8.5 -31q0 -26 -18 -44t-44 -18q-16 0 -30.5 8.5t-22.5 22.5t-8 31q0 25 18 43t43 18zM747 615q-33 0 -56 -23.5t-23 -56.5t23 -56.5t56 -23.5t56.5 23.5t23.5 56.5q0 22 -10.5 40t-29 29t-40.5 11zM512 535zM432 535q0 33 23.5 56.5t56.5 23.5
q11 0 21.5 -3t19 -8t16 -12.5t12.5 -16.5t8 -19t3 -21q0 -33 -23.5 -56.5t-56.5 -23.5t-56.5 23.5t-23.5 56.5zM277 596q16 0 30.5 -8t22.5 -22t8 -31t-8 -31t-22.5 -22.5t-30.5 -8.5q-26 0 -44 18t-18 43.5t18 43.5t44 18zM277 615q-17 0 -31.5 -6.5t-25.5 -17t-17 -25.5
t-6 -31q0 -33 23.5 -56.5t56.5 -23.5q21 0 39.5 10.5t29 29t10.5 40.5q0 33 -23 56.5t-56 23.5zM575 74h252v-18h-252v18zM503 568h18v-506h-18v506z" />
    <glyph glyph-name="uniE608" unicode="&#xe608;" 
d="M512 491q31 0 53 -22l304 -303q6 -7 8 -15.5t0 -17t-8.5 -15t-15 -8.5t-17 0t-14.5 9l-304 303q-6 7 -12 0l-304 -303q-5 -5 -11 -7.5t-12 -2.5t-12.5 2.5t-11.5 7.5q-6 6 -8 14.5t0 17t8 15.5l304 303q11 11 24.5 16.5t28.5 5.5zM512 491z" />
    <glyph glyph-name="uniE609" unicode="&#xe609;" 
d="M512 109q-31 0 -53 22l-304 303q-9 10 -9 24t9 23q5 5 11.5 7.5t12.5 2.5t12 -2.5t11 -7.5l304 -303q6 -7 12 0l304 303q10 10 23.5 10t23.5 -10q6 -6 8 -14.5t0 -17t-8 -15.5l-304 -303q-22 -22 -53 -22zM512 109z" />
    <glyph glyph-name="uniE60A" unicode="&#xe60a;" 
d="M760 519q-12 11 -27 11h-3q-5 -1 -17 -1q-18 0 -39 2t-41 6q-18 5 -38.5 17.5t-40 28t-20.5 16.5q-11 6 -23 6q-5 0 -11 -1.5t-11 -4.5l-3 -3t-8.5 -8t-12.5 -10.5t-15.5 -11.5t-17.5 -11.5t-19.5 -10t-20.5 -7.5q-14 -3 -31 -5t-28 -2.5t-21 -0.5q-12 0 -17 1h-3
q-16 -1 -27 -11q-4 -3 -7 -7.5t-4.5 -9.5t-1.5 -11v-95q0 -250 152 -356q52 -37 100 -45q4 -1 7 -1l7 1q8 1 18.5 4t36.5 14.5t50 28t52.5 48.5t49 71.5t34.5 100.5t14 134v95q0 17 -13 28zM733 396q0 -230 -139 -326q-44 -31 -83 -38l-12 3q-8 2 -31 12.5t-43.5 25
t-46 43.5t-43.5 65t-30.5 92t-12.5 123v95h2h7h11q50 0 90 9q11 3 23.5 8t22.5 11t20 13t17.5 13t13.5 11t9 8l3 3q7 -6 18 -15.5t40.5 -27.5t53.5 -24q40 -9 90 -9h20v-95zM491 293l-78 83l-31 -27l106 -112l31 26l-1 1l168 151l-28 30zM491 293z" />
    <glyph glyph-name="uniE60B" unicode="&#xe60b;" 
d="M1023 314v13l-1 13l-1 13l-1 12l-2 13l-2 12l-2 13l-3 12l-2 12l-3 12l-4 12l-3 11l-4 12l-5 11l-4 11l-5 12l-5 11l-6 11l-5 11l-6 10l-7 11l-6 11l-7 10l-7 10l-8 10l-8 10l-8 10l-8 10l-9 9l-8 10l-10 9l-9 9l-10 9l-10 9l-9 8l-10 8l-10 8l-11 8l-10 7l-10 7l-11 6
l-10 7l-11 6l-11 5l-11 6l-11 5l-12 5l-11 4l-12 5l-11 4l-12 3l-12 4l-12 3l-12 3l-12 2l-12 2l-13 2l-12 2l-13 1l-12 1l-13 1h-13h-13h-13h-13l-13 -1l-13 -1l-13 -1l-12 -2l-13 -2l-12 -2l-12 -2l-12 -3l-12 -3l-12 -4l-12 -3l-11 -4l-12 -5l-11 -4l-11 -5l-12 -5
l-10 -6l-11 -5l-11 -6l-11 -7l-10 -6l-11 -7l-10 -7l-10 -8l-10 -8l-10 -8l-10 -8l-9 -9l-10 -9l-9 -9l-10 -9l-8 -10l-9 -9l-8 -10l-9 -10l-7 -10l-8 -10l-7 -10l-7 -10l-6 -11l-7 -11l-6 -10l-6 -11l-5 -11l-5 -11l-5 -12l-5 -11l-4 -11l-4 -12l-3 -11l-4 -12l-3 -12
l-3 -12l-2 -12l-3 -13l-1 -12l-2 -13l-1 -12l-1 -13l-1 -13v-13l-1 -13l1 -13v-13l1 -13l1 -13l1 -13l2 -12l1 -12l3 -13l2 -12l3 -12l3 -12l4 -12l3 -12l4 -11l4 -12l5 -11l5 -11l5 -12l5 -11l6 -11l6 -10l7 -11l6 -11l7 -10l7 -11l8 -10l7 -10l9 -10l8 -10l9 -9l8 -10
l10 -9l9 -9l10 -9l9 -9l10 -8l10 -8l10 -8l10 -8l10 -7l11 -7l10 -6l11 -7l11 -6l11 -5l10 -6l12 -5l11 -5l11 -4l12 -5l11 -4l12 -3l12 -4l12 -3l12 -3l12 -2l12 -2l13 -2l12 -2l13 -1l13 -1l13 -1h13h13h18h18l18 2l18 2l18 2l16 4l18 3l16 4l16 5l17 6l16 6l15 6l15 7
l16 7l15 9l14 8l10 6l10 6l9 7l9 6l9 6l8 7l8 7l7 6l7 7l7 7l6 6l6 7l6 7l5 7l5 8l4 7l5 7l3 7l4 7l3 8l3 7l2 8l2 7l2 8l1 8l1 7v8v8v8v8l-1 8l-1 8l-2 7l-2 7l-1 6l-2 6l-3 7l-2 6l-3 6l-3 5l-4 6l-3 6l-4 5l-4 6l-5 5l-4 5l-5 5l-5 5l-5 4l-6 5l-6 4l-6 4l-6 4l-7 4l-6 4
l-8 4l-7 4l-7 3l-8 4l-8 3l-8 3l-9 3l-9 3l-9 3l-23 8l7 4l7 5l7 4l7 5l6 6l5 5l5 6l5 6l4 5l4 7l4 6l2 7l3 7l2 7l2 7l2 7v9l1 8l-1 9v8l-2 8l-2 8l-3 8l-3 8l-4 8l-4 8l-5 7l-5 8l-7 8l-7 7l-7 7l-8 7l-9 8l-8 7l-9 7l-10 6l-9 6l-10 5l-11 5l-10 5l-11 5l-12 4l-11 4
l-12 3l-12 3l-13 4l-12 2l-13 2l-16 2l-14 2l-16 2l-16 1l-16 1l-16 1l-16 1h-17h-17h-17h-17h-18l-18 -1l-19 -1l-18 -1l-19 -2v-161l15 2l15 2l15 1l15 1l15 1l16 1h15h15h16l15 -1h16l15 -2l16 -1l16 -1l15 -2l16 -2l13 -2l12 -3l12 -3l10 -2l10 -4l9 -3l8 -4l8 -4l3 -2
l3 -2l4 -3l2 -2l3 -2l2 -3l3 -2l2 -3l2 -3l1 -2l2 -3l1 -3l1 -3l1 -3l1 -3v-4v-3v-3v-2l-1 -3l-2 -7l-4 -8l-2 -3l-2 -3l-3 -3l-4 -2l-3 -2l-4 -2l-4 -2l-4 -1l-5 -1l-5 -1h-6h-5h-7h-6l-6 1l-8 1l-18 2l-19 2l-18 1l-18 2l-18 1h-18l-18 1h-17h-17l-17 -1h-18l-16 -1
l-17 -2l-16 -1l-17 -2l-16 -2v-165l23 3l22 2l22 2l22 2l21 1l21 1h20h20l19 -1h20l19 -2l18 -1l18 -2l18 -3l17 -3l17 -3l13 -2l13 -3l12 -3l11 -4l10 -4l9 -4l5 -2l4 -2l4 -3l4 -2l3 -3l3 -2l4 -3l2 -2l3 -3l3 -3l2 -3l2 -3l2 -3l1 -3l2 -3l1 -4l1 -3l1 -3v-4l1 -3v-3v-3
v-4v-2l-1 -3v-3l-1 -3l-1 -3l-1 -3l-2 -3l-1 -3l-2 -3l-4 -7l-5 -6l-3 -4l-4 -3l-4 -3l-4 -4l-4 -3l-4 -3l-5 -3l-5 -2l-4 -3l-5 -3l-6 -2l-5 -3l-5 -2l-6 -2l-6 -2l-7 -2l-6 -2l-6 -1l-7 -2l-7 -1l-14 -3l-15 -2l-16 -1l-17 -2h-18h-18h-10h-9l-10 1h-10l-9 1l-10 2l-9 1
l-9 1l-9 2l-9 2l-9 3l-9 2l-8 3l-9 3l-8 3l-9 3l-8 4l-9 3l-8 4l-8 5l-8 4l-8 5l-7 4l-8 5l-8 6l-7 5l-8 6l-7 6l-7 6l-7 6l-7 7l-8 7l-6 6l-7 8l-6 7l-6 7l-6 7l-6 8l-6 7l-5 8l-5 8l-5 7l-5 8l-4 8l-4 8l-4 8l-4 8l-4 9l-3 8l-3 9l-3 8l-3 9l-2 8l-2 9l-3 9l-1 9l-2 9
l-2 10l-1 9l-1 9v10l-1 10v9v10v10v9l1 10v9l1 10l1 9l2 9l2 9l1 9l3 9l2 9l2 9l3 8l3 9l3 9l3 8l4 8l4 9l4 8l4 8l4 8l5 8l5 7l5 8l5 8l6 7l6 8l6 7l6 7l6 7l7 7l6 7l8 7l7 7l7 6l7 6l8 6l7 6l8 5l7 6l8 5l8 5l8 4l8 5l8 4l8 4l8 4l8 3l9 4l8 3l9 3l8 3l10 2l8 3l9 1l9 2
l9 2l9 1l10 2l10 1h9l10 1h9h10h10h9l10 -1h9l10 -1l9 -2l9 -1l9 -2l9 -2l9 -1l9 -3l9 -2l8 -3l9 -3l9 -3l8 -4l8 -3l8 -4l8 -4l9 -4l7 -5l8 -4l8 -5l8 -5l7 -6l8 -5l7 -6l7 -6l8 -6l7 -6l7 -7l7 -7l6 -7l7 -6l6 -8l6 -7l6 -7l6 -7l6 -8l5 -7l5 -8l5 -8l4 -8l5 -8l4 -8l4 -8
l4 -8l4 -9l3 -8l3 -9l3 -8l3 -9l2 -9l2 -9l3 -9l1 -9l2 -9l1 -9l2 -9v-10l1 -9l1 -10v-9v-10l-2 -41l9 -5l8 -5l8 -5l8 -6l7 -5l8 -6l7 -5l7 -7l7 -6l8 -6l6 -7l7 -6l7 -8l6 -6l6 -8l6 -7l5 17l4 17l4 17l2 18l2 8v9l1 9l1 9l1 9v9v9l1 9z" />
    <glyph glyph-name="uniE60C" unicode="&#xe60c;" 
d="M721 569h-172v-74h172v-77h-91h-81v-78v-77v-74h81h91v-84h-172v-74h172h81v74v84v71v3h-172v77h91h81v78v77v74h-81zM222 569v-74v-77v-78h81h91v-77h-172v-3v-71v-84v-74h81h172v74h-172v84h91h81v74v77v78h-81h-91v77h172v74h-172h-81zM512 812q-104 0 -199 -40.5
t-163.5 -109t-109 -163.5t-40.5 -199t40.5 -199t109 -163.5t163.5 -109t199 -40.5q70 0 136 18.5t122 51.5t103.5 80.5t80.5 103.5t51.5 122t18.5 136q0 104 -40.5 199t-109 163.5t-163.5 109t-199 40.5zM512 -105q-110 0 -203 54.5t-147.5 147.5t-54.5 203q0 82 32.5 157
t86.5 129t129 86.5t157 32.5q66 0 127.5 -20.5t111.5 -58t87.5 -87.5t58 -111.5t20.5 -127.5q0 -82 -32.5 -157t-86.5 -129t-129 -86.5t-157 -32.5z" />
    <glyph glyph-name="uniE60D" unicode="&#xe60d;" 
d="M970 19q6 6 14.5 17t23 34.5t16.5 35.5l-3 10q-8 7 -26 -28q-1 -2 -2 -3q3 2 1.5 15t-14.5 3l-53 -58q-61 -58 -87 -63l-46 -21q-153 -58 -268 16q-89 57 -140 192q-3 7 -6 20t-6 50t2.5 72.5t28.5 82t63 83.5q199 182 414 23q7 8 18.5 20t36.5 29t37 10q1 0 3 2l5 5
q3 3 5.5 7.5t3 10t-3.5 11.5l-36 47q-3 -1 -8 -1.5t-19.5 -1.5t-28 -0.5t-29.5 4t-27.5 9.5t-19.5 18t-7 28q0 2 0.5 4t-0.5 7.5t-4 10.5t-9.5 10t-16 7.5t-26 2t-37.5 -4.5l-7 7q-4 4 -10.5 13.5t-5.5 15.5l-3 9q-16 21 -101 7q-4 -1 -10 -2t-27 -7t-43 -15t-54.5 -27
t-64.5 -41t-71.5 -58.5t-76.5 -77.5l-44 -31q-115 -71 -135 3q-3 15 -3 33q-4 -5 -10.5 -12t-21 -29t-22.5 -43t-8 -48.5t15 -50.5q1 -2 3.5 -5t11.5 -10.5t18.5 -13t25 -10t32.5 -4.5t39.5 6.5t46.5 20.5q0 -4 -1 -10t-1.5 -26.5t0 -41.5t4 -51.5t9.5 -59.5t17.5 -62.5
t27 -63t40 -59.5t53.5 -54q4 -3 11.5 -9.5t32.5 -24t51 -32.5t65 -30.5t77.5 -24t86.5 -8.5t94 13q4 1 11 3t27.5 9.5t40.5 18t47 29t50 41t45 56t37 71.5q-34 -33 -48 -30zM553 139h308v235l-308 -2v-233z" />
    <glyph glyph-name="uniE60E" unicode="&#xe60e;" 
d="M629 718l275 -279l96 96l-180 189q-16 14 -33 26.5t-30 20.5t-23.5 13.5t-16.5 7.5l-5 2q-42 14 -82 17t-66.5 -2.5t-47.5 -12.5t-31 -14l-10 -6q31 -1 58 -7t44 -14.5t29.5 -17t17.5 -13.5zM768 273q-15 2 -25 -1.5t-12 -8.5l-3 -4l-211 -214q-8 -10 -15.5 -7.5t-12 7.5
t-4.5 6l-205 205q-7 4 -8 11.5t2 13.5l3 5l209 214q7 9 14.5 8.5t12.5 -6.5l5 -5l207 -203q8 -11 15.5 -10.5t13.5 6.5l5 5l113 110l-314 316q-103 71 -250 -3q-30 -15 -49 -29q-166 -97 -219 -291q-15 -54 -16 -92q0 -76 15.5 -143.5t40 -114t55.5 -85.5t61 -62.5
t56.5 -39.5t41 -22.5t15.5 -6.5q61 -27 123 -37t110.5 -5.5t96 19.5t78.5 31t59 36t37 27.5t13 12.5q47 38 80.5 89t48 96t22.5 85t8 63v24h-217z" />
    <glyph glyph-name="uniE60F" unicode="&#xe60f;" 
d="M808 44q-26 -1 -56 -2t-63 -2t-56 -2q-19 -77 -104.5 -95.5t-157.5 34.5t-56 149q9 59 57.5 95.5t113 34t113.5 -47.5q9 -9 15 -18.5t11 -21.5t8.5 -26.5t6.5 -33.5q26 1 85.5 3t82.5 3q1 55 -15.5 104t-46.5 86t-70 65t-87.5 42.5t-97 18t-101.5 -9t-99 -39.5
q-108 -61 -138 -195q-29 -128 26 -245q50 -105 147 -147v-6q-93 2 -178.5 64t-106.5 146l1 603q48 33 150 105t151 106l4 -2l4 -2l4 -2q-9 -117 3 -350q10 10 33.5 34t36.5 35.5t35 28.5t46.5 27t54.5 16q94 18 173 -9q74 -26 129 -74.5t82.5 -107t33 -125t-12 -128
t-60.5 -115.5t-106 -87q-3 0 -13.5 -6t-14.5 -7q0 1 1.5 3.5t4 7.5t4.5 8q4 15 12 44t11 43z" />
    <glyph glyph-name="uniE610" unicode="&#xe610;" 
d="M708 641q-23 54 -77.5 86.5t-120.5 32.5q-93 0 -158 -63t-65 -153q0 -25 3 -36t7 -13t11 5q43 37 95 58t109 21q19 0 37 -2t35 -7q5 -1 6 -1t3 -0.5t3.5 0.5t3.5 1.5t5 2.5q14 9 30.5 17.5t32 15t33.5 13.5q4 2 6.5 5t3 7t-2.5 10zM226 576q-58 -6 -106 -48t-68 -105
q-11 -34 -11.5 -70t10 -68t29.5 -60t47 -48.5t61 -31.5q8 -3 12.5 -4t11 -2.5t12.5 -1.5q11 -1 14 2t-1 12q-47 112 -12 219q11 35 30 66q5 7 5.5 9.5t-1.5 10.5q-6 24 -9.5 50t-4.5 56q-1 15 -19 14zM140 97q-14 -58 11.5 -116.5t79.5 -96.5q74 -55 164 -42t142 85
q15 21 19 32q4 10 2 14t-12 3q-56 -5 -110.5 8.5t-100.5 47.5q-15 11 -28.5 23t-24.5 26l-5 5q-1 1 -3 2.5t-4 1.5t-7 1q-44 3 -105 19q-14 4 -18 -13zM568 -134q52 -30 115 -24t116 45q75 54 90.5 143.5t-37.5 161.5q-15 21 -24 28q-15 12 -19 -4q-27 -118 -119 -184
q-15 -11 -30.5 -20t-32.5 -15q-8 -4 -10 -5.5t-5 -9.5q-17 -41 -50 -94q-9 -13 6 -22zM920 203q13 11 23 24.5t18 28.5t13 31.5t7.5 34t2 35.5t-3.5 36t-9 36q-28 87 -108 129.5t-165 15.5q-9 -3 -13 -4.5t-10.5 -4.5t-10.5 -6q-10 -6 -10.5 -10t8.5 -9q103 -63 138 -170
q4 -12 7 -24t4.5 -23.5t2.5 -23.5q1 -7 1.5 -9t2 -4t5.5 -6q34 -28 74 -77q10 -12 23 0zM508 28q-18 0 -36 3t-34 7.5t-32 12.5q-6 2 -6 8v183q0 11 6.5 13.5t14.5 -5.5l25 -26l31 -30l26 -26l1 -1q4 -4 7 0q1 1 2 1q34 33 102.5 100t102.5 100q9 9 17 1l2 -3q19 -52 19 -96
q0 -99 -73.5 -170.5t-174.5 -71.5zM512 519q27 0 53 -5.5t49 -16.5q6 -4 6 -8v-183q0 -11 -6.5 -13.5t-14.5 4.5q-53 54 -82 83q-3 3 -4.5 3t-4.5 -3q-1 -1 -206 -201q-2 -2 -4.5 -2.5t-5.5 -0.5t-5.5 1.5t-3.5 4.5q-9 24 -14 47.5t-5 47.5q0 100 73.5 171t174.5 71z" />
    <glyph glyph-name="uniE611" unicode="&#xe611;" 
d="M470 457v-4h4l3 -2l6 -2h60l7 2l2 2h2l2 4l2 3v8v306l-21 2h-24h-24l-23 -2v-306l2 -8zM618 803v-100h1v-43v-222l-5 -6l-4 -3l-6 -2l-9 -2h-54h-4l-4 -2l-3 -4l-2 -5v-148l2 2l3 2h6h121l8 2h5l4 2l2 5l2 2l2 4v6v347v42q109 -49 176 -150.5t67 -224.5
q0 -155 -102.5 -270.5t-254.5 -136.5v86v79v35h91l8 2l5 2h4l2 4l2 2l2 5v6v147l-4 -5l-6 -4l-7 -2l-6 -2h-119h-4l-4 -2l-3 -5l-2 -4v-142h-32v142v4l-4 5l-5 2h-4h-118l-7 2l-6 2l-7 4l-2 2l-2 3v-147l2 -6v-5l2 -2l4 -4h5l2 -2l9 -2h90v-200q-152 21 -254.5 136.5
t-102.5 270.5q0 123 67 224.5t176 150.5v-42v-347l2 -6v-4l2 -2l4 -5l3 -2h4l9 -2h122h5l4 -4v148v5l-4 4l-5 2h-4h-54l-6 2l-7 2l-6 3l-2 2l-3 4v222v105v38q-175 -37 -290 -176.5t-115 -321.5q0 -103 40.5 -197t109 -162.5t163.5 -108.5t199 -40t199 40t163.5 108.5
t109 162.5t40.5 197q0 91 -31 174.5t-85 148.5t-129 111t-161 64z" />
    <glyph glyph-name="uniE612" unicode="&#xe612;" 
d="M599 743v-105q2 1 5 1.5t12 1.5t17 0.5t17.5 -4.5t16.5 -11.5t11 -22t4 -34.5l3 -256l-122 -69l3 168q0 11 -5.5 20t-15.5 13.5t-21.5 6.5t-23 0t-21.5 -6.5t-15.5 -13.5t-5.5 -20l3 -168l-122 74l3 251q-1 27 7.5 44t20.5 22t24.5 6t21.5 -1l9 -2v105h174zM0 9l91 52
l-7 7q-4 4 -11 17t-7.5 25.5t9.5 28.5t34 28l221 131l120 -71l-147 -81q-14 -8 -17.5 -23t2.5 -30t16.5 -28t24.5 -16.5t28 3.5l144 86l-4 -142l-218 -123q-23 -14 -42 -15.5t-29.5 6.5t-17.5 19t-9.5 18.5t-2.5 8.5l-91 -52zM937 -141l-91 53q-1 -4 -2.5 -9.5t-9.5 -18
t-18 -19.5t-29 -6t-42 15l-223 126l1 140l144 -87q14 -7 28 -3.5t24.5 17t16.5 28t2.5 30t-17.5 22.5l-147 82l125 67l216 -127q24 -13 34.5 -28.5t8.5 -29t-7 -24.5t-11 -18l-7 -6l91 -53z" />
    <glyph glyph-name="uniE613" unicode="&#xe613;" 
d="M405 452q-27 55 -71.5 88t-92.5 40t-94 -4t-82 -44.5t-51 -80.5q-8 -52 -14 -106v-330l156 -146v402l9 38q34 102 137 132q46 14 103 11zM838 457q-21 42 -59.5 71t-82.5 40t-90 4t-83 -30t-60 -67.5t-22 -103.5q-6 -174 -152 -216q-59 -17 -112 -10q36 -118 173 -130
q38 -4 68 1q28 4 52 15.5t40.5 26t30 35t22 38.5t14.5 40t8.5 37t4 31.5t1.5 20.5v8q4 30 15 55.5t25.5 43.5t34 32.5t38 23.5t39 16t36.5 10t31 5t20.5 2.5t7.5 0.5zM868 731v-402l-9 -38q-34 -102 -137 -132q-46 -14 -103 -11q28 -55 71.5 -88t91 -39t92.5 5t80.5 44.5
t51.5 80.5q16 37 18 104v330z" />
    <glyph glyph-name="uniE614" unicode="&#xe614;" 
d="M1024 303q0 33 -14.5 63.5t-40 56.5t-62 48t-80 37.5t-95 24t-105.5 8.5q-131 0 -234.5 -45.5t-142.5 -117.5q-8 -13 -8 -28q0 -17 10 -32.5t28 -25.5l201 -117q8 -4 17.5 -6.5t19.5 -2.5t19 2.5t17 6.5l191 111q21 12 21 32q0 19 -20 31l-71 41l-157 -90l-119 68
q35 32 96 51t134 19q110 0 187.5 -41t77.5 -99q-1 -58 -54 -106.5t-142 -75t-193.5 -24t-192.5 34t-138 82.5t-48 110q0 77 62 142t167.5 102t230.5 36q33 -1 66 -4q-83 30 -187 30q-83 0 -154 -20q-139 -38 -225 -119.5t-86 -182.5q0 -89 68.5 -164.5t186.5 -119.5t257 -44
t257 44t186.5 119.5t68.5 164.5v0z" />
    <glyph glyph-name="uniE615" unicode="&#xe615;" 
d="M94 243l-5 -28h148l7 28h-150zM472 215l5 28h-169l-6 -28h170zM566 357l-23 -114l-7 -28l-23 -114h-64h-170l-5 -26h273l37 168l23 114h64h264l-25 -114h-262l-59 -282h-65h-275l-5 -26h381l36 166l23 114h66h155l-23 -114h-156l-35 -166l-25 -114h-64h-447l59 280h-150
h-64l25 114l5 28l24 114h65h148l59 280h65h170l29 142h20h414l-25 -114h-369l-5 -28l-23 -114h-66h-168l-7 -26h275l5 26l25 114h64h264l-24 -114h-263l-29 -140h-65h-275l-7 -26h170h65z" />
    <glyph glyph-name="uniE616" unicode="&#xe616;" 
d="M932 100l-111 -161h-604l-119 148l261 674l148 -353l141 357l136 -317h219l-8 19l-7 20l-7 19l-9 18l-8 18l-11 18l-10 16l-11 17l-13 16l-6 9l-6 8l-13 15l-14 14l-14 14l-15 15l-16 12l-15 12l-16 12l-17 12l-17 10l-18 10l-18 9l-19 8l-18 9l-10 3l-9 4l-20 6l-20 5
l-20 5l-21 4l-20 3l-21 1l-23 3h-21h-13l-13 -1l-26 -2l-26 -3l-13 -3l-13 -2l-11 -2l-13 -4l-24 -7l-23 -7l-24 -9l-22 -11l-22 -12l-11 -5l-11 -6l-10 -7l-11 -6l-20 -16l-9 -7l-11 -7l-17 -16l-18 -18l-10 -8l-8 -9l-8 -9l-8 -9l-14 -20l-16 -20l-13 -21l-5 -11l-6 -10
l-12 -23l-11 -22l-8 -24l-8 -23l-7 -24l-6 -24l-5 -26l-3 -26l-2 -26l-1 -26v-13l1 -13l2 -27l3 -25l3 -13l2 -12l2 -12l4 -13l7 -24l8 -24l8 -23l11 -23l12 -21l6 -12l5 -11l7 -10l6 -10l16 -20l7 -10l7 -10l16 -19l18 -17l8 -8l10 -9l8 -8l9 -8l20 -15l20 -15l21 -13
l11 -5l11 -7l22 -11l22 -11l24 -9l23 -8l24 -6l24 -6l26 -5l26 -3l26 -3h26h21l20 2l20 2l11 1l9 1l20 4l19 4l20 5l19 6l17 7l19 7l18 7l18 8l17 10l17 9l16 11l15 11l16 11l15 12l14 13l14 13l14 14l13 13l13 15l12 16l11 15l11 15l10 17l10 17l9 17l8 17l8 18l7 19h-72z
M179 93h284l-145 351zM805 399h209l-4 21h-215zM825 349h196l-2 22h-202zM470 93h283l-145 351zM867 251h154l3 21h-166zM838 321l8 -21h178v21h-186zM888 201h126l4 21h-139zM910 153h93l5 20h-108z" />
    <glyph glyph-name="uniE617" unicode="&#xe617;" 
d="M1023 322q-2 51 -15 100.5t-30 84.5t-34 63t-28 41l-12 14q-48 57 -107 96.5t-108 55.5t-91 24.5t-66 7.5l-24 -1q-49 2 -96.5 -7t-84.5 -24t-70 -33.5t-57 -37.5t-41.5 -34.5t-26.5 -25.5l-8 -10q-28 -33 -50 -69.5t-33 -62t-18 -50.5t-8.5 -33.5t-2.5 -12.5
q-9 -38 -11 -77t1.5 -71t10.5 -64t14.5 -53.5t16 -41.5t12 -26t5.5 -9q49 -90 108 -142t151 -95q22 -10 47 -17.5t51 -12t54 -6.5t55 -1.5t54.5 4t53 9t49.5 14t45 18.5q85 43 140 95.5t101 137.5q53 99 53 252zM460 -96q-8 1 -21 2.5t-51 13t-72 30t-75.5 56.5t-70.5 88
l-5 8q-3 4 -11.5 20.5t-15.5 33.5t-14.5 43.5t-11.5 53t-2.5 60t8.5 65.5q6 25 14 48.5t17 43t18 36t19 30.5t18.5 25t17.5 21l16 14q5 6 12 12t8 7q20 19 86.5 50t115.5 30v-188h-80q-4 0 -11 -1t-26 -9t-33.5 -20t-27 -37t-13.5 -58v-174q0 -4 1 -11.5t7.5 -26.5t17.5 -34
t34 -29t54 -18h77v-185zM396 200q-1 0 -5.5 -1t-10 3.5t-6.5 14.5v166q3 18 17 18h233q1 -1 5.5 0t10 -4t6.5 -14v-162v-3v-6q0 -4 -1 -7t-4.5 -5t-8.5 0h-236zM850 78q-36 -54 -93.5 -94.5t-106.5 -58.5t-86 -21v185h88q2 1 5.5 1.5t13.5 4.5t19 9t20.5 15t20 21.5
t14.5 28.5t7 37v197q0 4 -2 11t-10 24t-20 30.5t-35 25.5t-53 13h-68v188q2 0 6.5 -0.5t18.5 -3.5t28.5 -7t35.5 -11.5t40 -17t41.5 -24.5t42.5 -33q23 -21 42 -43.5t32 -43.5t22.5 -39.5t16.5 -37.5t10.5 -31.5t6.5 -27.5q5 -21 6 -51t-2.5 -71t-19 -88t-41.5 -87z" />
    <glyph glyph-name="uniE618" unicode="&#xe618;" 
d="M279 631v-787q23 -12 47.5 -21.5t50.5 -16.5v668q0 51 -27 93t-71 64zM745 631v-787q-46 -24 -98 -38v668q0 51 27 93t71 64zM747 741q0 14 -13 20v1q-105 50 -222 50q-59 0 -115 -13t-107 -38q-3 -1 -5.5 -3t-4 -4.5t-2.5 -6t-1 -6.5q0 -5 2 -9.5t6 -7.5t8 -4
q69 -22 113.5 -81.5t44.5 -133.5v-713l20 -2q10 -1 20.5 -1.5t20.5 -0.5q30 0 61 4v713q0 74 44.5 133.5t113.5 81.5q16 5 16 21zM162 333q11 -4 22 0t17 14v359q-94 -71 -147.5 -177.5t-53.5 -228.5t53.5 -228.5t147.5 -177.5v359q-6 10 -17 14t-22 0q-38 -14 -49 -54v-1
q-1 -2 -3 -4t-5 -2q-4 0 -6 3q-10 12 -17.5 26.5t-11.5 31t-4 33.5q0 52 33 91q3 3 6 3q2 0 3.5 -1t2.5 -2.5t2 -3.5v1l-1 4q9 -44 50 -59zM977 267q-39 -14 -49 -54q-2 -7 -8 -7q-5 0 -7 4q-15 19 -23.5 42t-8.5 48q0 51 32 90q3 3 7 4q3 0 5 -2t3 -4v-1q5 -18 17.5 -32.5
t31.5 -21.5q13 -4 25 1.5t17 18.5l1 6q-12 105 -63.5 195t-133.5 152v-812q82 62 133.5 152t63.5 195l-1 6q-5 13 -17 18.5t-25 1.5z" />
    <glyph glyph-name="uniE619" unicode="&#xe619;" 
d="M962 -6v657q-1 36 -16.5 61t-36 33.5t-40.5 12.5t-34 2l-14 -2l-633 -2q-27 0 -48.5 -7.5t-34.5 -19.5t-22 -28.5t-13 -30.5t-6 -29t-2 -20v-8l-2 -633q1 -112 97 -134q27 -6 49 -4l630 -2q107 1 125 100q5 29 1 54zM801 29q-7 5 -19.5 13t-51.5 26.5t-79 31.5t-96.5 20
t-109 -0.5t-111.5 -37.5t-108 -83q5 6 13.5 17.5t30.5 49t37.5 76.5t26 96t6 112t-32.5 121t-80 126q7 -5 18.5 -14t49 -32t76 -39t94.5 -26.5t108.5 -5t114 36t115.5 86.5q-6 -6 -14.5 -17.5t-30 -48t-37 -74t-25.5 -92.5t-5.5 -108t32 -115.5t78.5 -118.5z" />
    <glyph glyph-name="uniE61A" unicode="&#xe61a;" 
d="M739 -17h-133q-11 0 -11 10v140q0 11 -2 21t-6.5 19t-10 17t-13 14.5t-16 11t-18 6.5t-19.5 2q-36 0 -61 -26.5t-25 -64.5v-140q0 -4 -3 -7t-8 -3h-128q-16 0 -27.5 11.5t-11.5 28.5v227q-5 -3 -10 -4.5t-10 -1.5q-16 0 -28 12t-12 29q0 8 3.5 15.5t9.5 13.5l284 291
q13 13 31 12h1h1h1q7 -1 13 -4t10 -8h1l77 -79q2 14 10.5 25t21 17.5t26.5 6.5q25 0 42.5 -17.5t17.5 -42.5v-110l91 -92q1 -1 1 -2q1 -2 2.5 -3.5t2.5 -3.5t1.5 -3.5t1.5 -3.5v-4l2 -4v-4q0 -11 -5.5 -20.5t-14.5 -15t-20 -5.5q-5 0 -10 1.5t-10 4.5v-227
q0 -17 -11.5 -28.5t-27.5 -11.5zM616 3h123q8 0 13.5 6t5.5 14v249q0 7 6 10q2 1 4 1t4 -1l4 -2l8 -9l1 -1q5 -5 13 -5t13.5 6t5.5 14q0 2 -0.5 4.5t-2 5t-2.5 4.5h-1l-92 95l-3 7v114q0 16 -11.5 27.5t-28.5 11.5q-10 0 -19.5 -5t-14.5 -14.5t-5 -19.5v-13q-1 -6 -7 -9
t-11 2l-92 95h-1q-1 2 -2.5 3t-3.5 1l-2 2q-2 0 -4 1v0h-1v0h-1q-2 0 -4 -0.5t-4 -1.5l-2 -2l-4 -2l-285 -292q-6 -6 -6 -14q0 -6 2.5 -10.5t7 -7t9.5 -2.5q8 0 14 6v0l8 9q5 4 11.5 1.5t6.5 -9.5v-249q0 -3 0.5 -5.5t1.5 -4.5l4 -4q1 -2 4 -3l4 -2q3 -1 5 -1h118v130
q0 46 31.5 79t75.5 33t75 -33t31 -79v-130z" />
    <glyph glyph-name="uniE61B" unicode="&#xe61b;" 
d="M739 -17h-133q-11 0 -11 10v140q0 11 -2 21t-6.5 19t-10 17t-13 14.5t-16 11t-18 6.5t-19.5 2q-36 0 -61 -26.5t-25 -64.5v-140q0 -4 -3 -7t-8 -3h-128q-16 0 -27.5 11.5t-11.5 28.5v227q-5 -3 -10 -4.5t-10 -1.5q-16 0 -28 12t-12 29q0 8 3.5 15.5t9.5 13.5l284 291
q13 13 31 12h1h1h1q7 -1 13 -4t10 -8h1l77 -79q2 14 10.5 25t21 17.5t26.5 6.5q25 0 42.5 -17.5t17.5 -42.5v-110l91 -92q1 -1 1 -2q1 -2 2.5 -3.5t2.5 -3.5t1.5 -3.5t1.5 -3.5v-4l2 -4v-4q0 -11 -5.5 -20.5t-14.5 -15t-20 -5.5q-5 0 -10 1.5t-10 4.5v-227
q0 -17 -11.5 -28.5t-27.5 -11.5z" />
    <glyph glyph-name="uniE61C" unicode="&#xe61c;" 
d="M822 297v5q0 20 -5 30q-3 5 -6.5 9t-11.5 7.5t-18 3.5v53q0 29 -20.5 49.5t-49.5 20.5h-440q-14 0 -26.5 -5.5t-22 -15t-15 -22t-5.5 -27.5v-342q0 -29 20.5 -49.5t48.5 -20.5h440q29 0 49.5 20.5t20.5 49.5v48q26 1 36 22q5 10 5 31v4v4v120v5zM711 16h-440
q-19 0 -32.5 13.5t-13.5 33.5v342q0 20 13.5 33.5t32.5 13.5h440q20 0 33.5 -13.5t13.5 -33.5v-53h-227q-10 0 -19 -3t-16.5 -8.5t-13 -13t-8.5 -17t-3 -18.5v-120q0 -25 17.5 -43t42.5 -18h227v-48q0 -20 -13.5 -33.5t-33.5 -13.5zM780 135h-249q-15 0 -26 10.5t-11 26.5
v120q0 15 11 26t26 11h250q3 0 5.5 -0.5t4 -1.5t3 -2.5t2.5 -3t1.5 -4t1 -4t0.5 -5.5v-4v-6v-6v-120v-5v-9q0 -2 -0.5 -7t-2 -7t-3.5 -4.5t-5 -3.5t-8 -1zM589 257q-11 0 -19 -7.5t-8 -18.5q0 -6 2.5 -11t6 -8.5t8.5 -5.5t10 -2q11 0 19 7.5t8 19t-8 19t-19 7.5zM611 569
l39 -79h30l-56 117l-250 -115l61 -2z" />
    <glyph glyph-name="uniE61D" unicode="&#xe61d;" 
d="M624 607l-249 -115l60 -2l177 79l39 -79h30zM780 111h-248q-25 0 -43 18t-18 43v120q0 25 18 42.5t43 17.5h249v53q0 29 -20 49.5t-49 20.5h-440q-29 0 -49.5 -20.5t-20.5 -49.5v-342q0 -29 20.5 -49.5t49.5 -20.5h440q19 0 35 9.5t25 25.5t9 35v48h-1zM799 292v6v6v6
q0 4 -1 6l-1 4q-1 3 -2.5 4t-3 2.5t-4.5 2t-6 0.5h-249q-16 0 -26.5 -11t-10.5 -26v-120q0 -16 10.5 -26.5t26.5 -10.5h248q13 0 16 7.5t3 25.5v4v120zM589.5 204q-7.5 0 -13.5 3.5t-9.5 9.5t-3.5 13.5t3.5 13.5t9.5 9.5t14 3.5q11 0 18.5 -7.5t7.5 -18.5q0 -8 -3.5 -14
t-9.5 -9.5t-13.5 -3.5z" />
    <glyph glyph-name="uniE61E" unicode="&#xe61e;" 
d="M755 89q-8 61 -8 62q0 5 2 7q1 2 3 3q6 7 15.5 19.5t23.5 51.5t14 81v6q-1 52 -34 110q-28 51 -75 87q-59 44 -142 62h-3q-20 2 -42 2q-33 0 -60 -4t-46 -11q-23 11 -35 17l-2 1q-58 24 -93 24h-2h-2q-10 -1 -18 -9.5t-8 -22.5q0 -7 3 -16v-2q1 -2 2 -4.5t2 -6.5t2 -9
t2.5 -10t3.5 -10.5t3 -11t2.5 -11t2.5 -9.5q-30 -33 -50 -77q-34 -3 -54 -20q-9 -6 -15.5 -19t-6.5 -31v-78l2 -10q1 -3 3.5 -7t8 -10.5t15 -11.5t20.5 -6h1h1h3q2 0 4.5 -0.5t5.5 -0.5h6q23 -46 66 -90q-1 -7 -2 -12q-1 -1 -1 -3q-8 -48 -8 -74q0 -7 1 -12q0 -4 1 -7
q4 -8 14 -15t25 -8h2h88q10 0 19.5 4t19.5 15t15 28q21 -2 41 -2h1q21 0 40 2t36 5l3 -6q4 -11 8 -19t11.5 -15.5t16.5 -9.5q3 -1 6 -1h1q108 3 114 4l3 -1q18 0 25 19q4 9 4 24q0 18 -5 49zM730 22l-117 -4q-7 1 -14 15.5t-10.5 26.5t-3.5 14q-31 -9 -70.5 -11t-62.5 0
l-23 3q0 -14 -3.5 -24t-8 -15t-10 -7.5t-7.5 -2.5h-4h-88q-7 0 -11.5 2.5t-5.5 4.5l-2 2q-3 20 8 79l3 28q-25 25 -43.5 51t-24.5 39l-6 13l-34 3q-9 1 -16 6t-10 10l-2 5v78q0 10 3 18t6 11l4 2q5 5 12.5 8t14.5 4.5t13.5 2t10.5 0.5h4q5 13 11 25t11.5 21t11.5 17
t10.5 13.5t8.5 9t6 5.5l2 2l-24 88q-2 9 -1.5 12.5t2.5 4.5l2 1q6 0 14 -1t16 -3t16 -4.5t15 -5t12.5 -4.5t8.5 -3l3 -1q9 -5 20.5 -10.5t18.5 -8.5l7 -4q21 11 57.5 15t62.5 3l26 -2q46 -10 84 -28.5t61.5 -39.5t41.5 -45.5t26 -44.5t13 -40t5.5 -27.5t0.5 -10.5
q1 -40 -10.5 -75t-23.5 -50l-12 -15q-6 -4 -9 -11.5t-3 -12.5v-5l9 -63q9 -68 -2 -64zM328 417zM304 417q0 10 7 17t17 7t17 -7t7 -17t-7 -17t-17 -7t-17 7t-7 17zM575 509q-34 12 -66 12t-47 -6l-15 -5q-3 -6 -3 -10t2 -5.5t4.5 -2.5t4.5 -1h2q5 3 12.5 4.5t14.5 2t14 0.5
h10h3q10 0 19 -1.5t15 -3t10.5 -3.5t6.5 -3t2 -2q10 -1 12.5 4.5t0.5 12.5zM882 389q-6 -49 -17 -46q3 18 1 29t-7.5 16.5t-11 8t-9.5 3.5h-5q-21 -3 -25.5 -19.5t1.5 -32.5l6 -15l-12 -3l2 -34q5 0 10.5 1.5t10.5 4t9.5 5t7.5 5.5t6 5t4 3l2 2q6 2 11 6t8 8t5.5 9t3.5 10.5
t1 10.5v8q0 5 -0.5 8t-0.5 5zM828 344q-1 0 -2.5 1t-3.5 4.5t2 9.5v3q-1 2 0 5.5t2.5 6.5t5 4.5t8.5 0.5l1 -3q1 -4 1.5 -9t0 -9.5t-4 -8.5t-10.5 -5z" />
    <glyph glyph-name="uniE61F" unicode="&#xe61f;" 
d="M755 89q-8 61 -8 62q0 5 2 7q1 2 3 3q6 7 15.5 19.5t23.5 51.5t14 81v6q-1 52 -34 110q-28 51 -75 87q-59 44 -142 62h-3q-20 2 -42 2q-33 0 -60 -4t-46 -11q-23 11 -35 17l-2 1q-58 24 -93 24h-2h-2q-10 -1 -18 -9.5t-8 -22.5q0 -7 3 -16v-2q1 -2 2 -4.5t2 -6.5t2 -9
t2.5 -10t3.5 -10.5t3 -11t2.5 -11t2.5 -9.5q-30 -33 -50 -77q-34 -3 -54 -20q-9 -6 -15.5 -19t-6.5 -31v-78l2 -10q1 -3 3.5 -7t8 -10.5t15 -11.5t20.5 -6h1h1h3q2 0 4.5 -0.5t5.5 -0.5h6q23 -46 66 -90q-1 -7 -2 -12q-1 -1 -1 -3q-8 -48 -8 -74q0 -7 1 -12q0 -4 1 -7
q4 -8 14 -15t25 -8h2h88q10 0 19.5 4t19.5 15t15 28q21 -2 41 -2h1q21 0 40 2t36 5l3 -6q4 -11 8 -19t11.5 -15.5t16.5 -9.5q3 -1 6 -1h1q108 3 114 4l3 -1q18 0 25 19q4 9 4 24q0 18 -5 49zM328 393q-10 0 -17 7t-7 17t7 17t17 7t17 -7t7 -17t-7 -17t-17 -7zM564 485
q-2 2 -6 4t-18 5.5t-29 3.5q-36 2 -54 -7h-2q-2 0 -4.5 1t-4.5 2.5t-2 5.5t3 10q52 26 128 -1q1 -3 2 -7.5t-1 -11t-12 -5.5zM882 389q-6 -49 -17 -46q3 18 1 29t-7.5 16.5t-11 8t-9.5 3.5h-5q-21 -3 -25.5 -19.5t1.5 -32.5l6 -15l-12 -3l2 -34q7 0 15 3t13.5 6.5t10.5 7.5
t8 6l3 3q36 13 28 64q0 3 -1 3zM828 344q-1 0 -2.5 1t-3.5 4.5t2 9.5v3q-1 2 0 5.5t2.5 6.5t5 4.5t8.5 0.5l1 -3q1 -4 1.5 -9t0 -9.5t-4 -8.5t-10.5 -5z" />
    <glyph glyph-name="uniE620" unicode="&#xe620;" 
d="M512 377q-16 0 -27 -11.5t-11 -27.5q0 -7 3 -14.5t8 -12.5t12 -8t15 -3q16 0 27 11t11 27t-11 27.5t-27 11.5zM359 377q-16 0 -27.5 -11.5t-11.5 -27.5q0 -7 3 -14.5t8 -12.5t12.5 -8t15.5 -3q15 0 26.5 11t11.5 27q0 11 -5 19.5t-14 14t-19 5.5zM512 607q-83 0 -154 -36
t-112 -98t-41 -135q0 -41 14.5 -80.5t40 -71.5t60.5 -57v-136l135 82q14 -3 28.5 -4t28.5 -1q127 0 217 78.5t90 190t-90 190t-217 78.5zM512 101q-38 0 -67 7l-97 -69l5 105q-54 32 -86 84t-32 111q0 99 81 168.5t196 69.5t196 -69.5t81 -168t-81 -168.5t-196 -70zM665 377
q-15 0 -26.5 -11.5t-11.5 -27.5q0 -10 5 -19t14 -14t19.5 -5t19.5 5t14 14t5 19.5t-5 19t-14 14t-20 5.5z" />
    <glyph glyph-name="uniE621" unicode="&#xe621;" 
d="M512 607q-83 0 -154 -36t-112 -98t-41 -135q0 -62 30.5 -116.5t84.5 -92.5v-136l135 82q14 -3 28.5 -4t28.5 -1q127 0 217 78.5t90 190t-90 190t-217 78.5zM359 300q-16 0 -27.5 11t-11.5 27t11.5 27.5t27 11.5t27 -11.5t11.5 -27.5q0 -10 -5 -19t-14 -14t-19 -5z
M512 300q-16 0 -27 11t-11 27t11 27.5t27 11.5t27 -11.5t11 -27.5t-11 -27t-27 -11zM665 300q-15 0 -26.5 11t-11.5 27q0 11 5 19.5t14 14t19.5 5.5t19.5 -5.5t14 -14t5 -19t-5 -19.5t-14 -14t-20 -5z" />
    <glyph glyph-name="uniE622" unicode="&#xe622;" 
d="M512 658q-123 0 -210 -87t-87 -209q0 -61 23.5 -116t63.5 -94.5t95 -63t115 -23.5q81 0 149 39.5t108 108t40 149.5q0 27 -5 53t-14 50t-22 46.5t-29.5 41.5t-35.5 35.5t-41.5 29.5t-46 22t-50 13.5t-53.5 4.5zM689 292q-3 -3 -7.5 -4.5t-9.5 -1.5h-108q-11 0 -15 -3
q-3 -1 -4.5 -2.5t-2.5 -3.5q-2 -4 -1 -23l1 -65q0 -3 -0.5 -6.5t-1.5 -6.5t-2 -5.5t-3 -4.5q-3 -5 -8 -7.5t-13 -2.5q-14 -1 -21.5 7.5t-7.5 24.5l1 78q0 5 -1 8.5t-3 5.5q-3 4 -15 4h-117q-8 0 -12.5 8t-2.5 18t8 15q3 2 6 3.5t6 1.5h112q7 0 11 1t5 3q1 4 -3 10
q-2 3 -4 4.5t-5 2.5q-5 3 -11 3h-102q-5 0 -9 1.5t-7 4.5q-2 1 -3 3.5t-1 5.5v7q2 11 8 15q4 2 7.5 3t6.5 1h86q2 0 3.5 0.5t2.5 0.5l-8 14l-54 92q-4 8 -3 17q0 4 2 7.5t6 6.5q7 5 17 5q6 -1 9 -4q2 -1 4 -3.5t4 -5.5l74 -127q2 -4 3.5 -6.5t2.5 -2.5q1 -1 5 -2q3 0 5 0.5
t3 2.5q4 2 9 12l68 127q4 7 6.5 9.5t10 4t16.5 -3.5t10 -11v-4v-4q0 -2 -1 -4q-2 -6 -8 -18l-49 -92q-1 -2 -1.5 -3.5t0.5 -3.5t4 -3l7 -1h70q7 -1 13 -4q7 -4 8 -16q1 -6 0 -10t-4 -6.5t-6 -3.5t-7 -1h-101q-9 0 -16 -2t-9.5 -5t-2.5 -8q0 -2 0.5 -3.5t2.5 -3.5q3 -2 16 -2
h108q3 0 6 -0.5t5.5 -1.5t5.5 -3q8 -4 10 -15.5t-4 -17.5zM422 43q-9 -9 0 -18l80 -79q9 -10 19 0l79 79q4 4 4 9t-4 9h-178z" />
    <glyph glyph-name="uniE623" unicode="&#xe623;" 
d="M888 566h-752q-33 0 -57 -24t-24 -57.5t24 -58.5t57 -25h75q5 8 9 15q42 66 80 106q4 5 9.5 8t11.5 4.5t12 1.5h361q6 0 12 -1.5t11 -4.5t10 -8q1 -1 2.5 -3t6.5 -7.5t10 -11.5t12.5 -15.5t14.5 -19.5t16 -23t17 -26q3 -4 5 -7.5t4 -7.5h73q33 0 57 25t24 58.5t-24 57.5
t-57 24zM909 149q-3 19 -7 37.5t-9 37t-11.5 37.5t-14.5 38q-8 20 -17.5 39.5t-20.5 39t-23 38.5q-41 66 -79 106q-5 5 -10 8t-11 4.5t-12 1.5h-361q-19 0 -33 -14q-38 -41 -80 -106q-36 -58 -60 -117q-16 -38 -26.5 -75.5t-15.5 -74.5q-1 -3 -1 -7v-9q0 -35 20 -61
q30 -38 90 -38h2h569h2q60 0 90 38q20 26 20 61q0 5 -0.5 9t-0.5 7zM798 79h-569q-22 0 -37 6.5t-21 15t-8 19.5t-1.5 15.5t0.5 7.5q8 56 29.5 113t42.5 95.5t47 74.5t36 47.5t16 17.5h361q6 -6 15.5 -17t35.5 -47.5t47.5 -75t42.5 -95.5t29 -113v-22q-8 -42 -64 -42h-2z
M652 338q-3 6 -9 8.5t-12 2.5h-77h-7q-3 0 -4 1q-3 1 -3 4l2 4q2 1 7 2q2 1 5 1h6h70q2 0 3.5 0.5t2.5 1t2 0.5q3 3 1 9q-3 5 -7 7q-2 1 -4.5 1.5t-4.5 0.5h-46l-5 1q-2 0 -3 1v4l27 39l2 4q1 2 1 3q1 2 0 5q0 1 -1.5 2t-4.5 2q-6 2 -10 1l-6 -1q-1 -1 -1.5 -2t-1.5 -2
l-40 -53q-3 -5 -5 -6t-3 -1h-3h-3l-2 2q-1 1 -2 3l-44 53l-4 4q-2 1 -5 1q-6 1 -11 -2q-2 -1 -3.5 -2t-1.5 -3l1 -6l29 -39l5 -7l-4 -1h-57q-3 0 -5 -1h-6q-2 -1 -3.5 -3t-2.5 -5q-2 -5 1 -8t10 -3h70q5 0 8 -1q2 -1 3.5 -2t2.5 -2q3 -3 2 -5t-11 -2h-79l-9 -3
q-5 -3 -8 -8.5t-1 -9.5q1 -3 3.5 -4t5.5 -1h86l11 -2q3 -3 3 -9l-3 -51q0 -6 1.5 -10.5t4.5 -7.5q6 -7 18 -6q6 1 10.5 2.5t7.5 5.5q5 6 5 17l-3 43q0 11 1.5 13.5t4.5 4t11 1.5h80q4 0 7 1t4.5 2.5t2 4t-1.5 6.5zM579 161.5q-8 5.5 -16 -0.5l-34 -22l-34 22q-8 6 -16 0.5
t0 -10.5l42 -27q2 -1 4 -1.5t4 -0.5h3q1 0 2.5 0.5t2.5 1.5l42 27q8 5 0 10.5z" />
    <glyph glyph-name="uniE624" unicode="&#xe624;" 
d="M115 95q0 -42 30 -72t72 -30h590q28 0 51.5 13.5t37 37t13.5 51.5v266h-794v-266zM696 230q0 5 2.5 8.5t6 6t8.5 2.5h65q7 0 12 -5t5 -12v-65q0 -7 -5 -11.5t-12 -4.5h-65q-7 0 -12 4.5t-5 11.5v65zM807 607h-590q-11 0 -21 -2t-19 -6t-17 -9.5t-15 -12.5t-12.5 -15
t-9.5 -17t-6 -19t-2 -21v-45h794v45q0 55 -46 86q-26 16 -56 16z" />
    <glyph glyph-name="uniE625" unicode="&#xe625;" 
d="M313 342q1 7 2.5 19t14 42.5t33.5 51.5l-16 15q-3 -2 -6.5 -6t-12.5 -17t-16 -27.5t-13 -36.5t-6 -45q0 -3 0.5 -8t3 -19t7.5 -28.5t16.5 -33t26.5 -34.5l17 13q-48 48 -51 114zM814 56l-138 123q57 72 57 164q0 54 -21 102.5t-56.5 84t-84 56.5t-102.5 21
q-72 0 -132.5 -35.5t-96 -96t-35.5 -132.5q0 -109 77.5 -186.5t186.5 -77.5q92 0 164 57l121 -137q3 -2 9 -4t20 -1t24 12l8 12q8 17 -1 38zM469 135q-86 0 -147 61t-61 147t61 147t147 61t147 -61t61 -147q0 -57 -28 -104.5t-75.5 -75.5t-104.5 -28z" />
    <glyph glyph-name="uniE626" unicode="&#xe626;" 
d="M512 617q-131 0 -224 -93t-93 -224t93 -224t224 -93t224 93t93 224q0 52 -16 100.5t-45 87.5t-68 68t-87.5 45t-100.5 16zM512 595q122 0 208.5 -86.5t86.5 -208.5q0 -36 -8.5 -70t-24 -64t-37.5 -56q-25 54 -87.5 88t-139.5 34q-75 0 -137 -33t-88 -87q-68 82 -68 188
q0 124 89 211q86 84 206 84zM302 94q9 25 29.5 46.5t48 36.5t61.5 23.5t69 8.5q49 0 92.5 -14.5t74 -41.5t43.5 -61q-86 -87 -208 -87q-124 0 -210 89zM511 255q34 0 62.5 16.5t45.5 45t17 62.5q0 26 -10 49t-26.5 39.5t-40 26.5t-48.5 10q-52 0 -88.5 -36.5t-36.5 -88.5
q0 -25 10 -48t27 -40t40 -26.5t48 -9.5zM511 481q42 0 72 -30t30 -72t-30 -72t-72 -30t-72 30t-30 72q0 21 8 40t22 32.5t32.5 21.5t39.5 8zM511 481z" />
    <glyph glyph-name="uniE627" unicode="&#xe627;" 
d="M309 703l-167 -217q-52 -69 -69.5 -151t4 -163.5t78.5 -148.5q71 -82 175.5 -110.5t209 5t173.5 123.5l209 270h-329l-112 -145l-160 124l317 413h-329zM611 604h148l-141 -185l-94 71zM808 604h152l-216 -282l-95 73z" />
    <glyph glyph-name="uniE628" unicode="&#xe628;" 
d="M528 364h11h11h10h11l10 -1h10h11l10 -1h10l10 -1h10l9 -1h10l10 -1l9 -1l10 -1l9 -1h9l10 -1l9 -2l9 -1l9 -1l9 -1l9 -1l8 -1l9 -2l9 -1l8 -1l8 -2l9 -1l8 -2l8 -1l10 -2l9 -2l10 -2l9 -3l8 -2l9 -2l8 -2l8 -2l8 -2l8 -2l7 -3l7 -2l7 -2l7 -3l7 -2l6 -3l-445 444
l-442 -442l7 2l8 3l8 2l8 3l8 2l9 3l8 2l10 2l9 2l9 3l10 2l10 2l10 2l11 2l10 2l11 1l9 2l9 2l9 1l9 1l9 2l10 1l9 1l9 1l9 1l10 2l9 1l10 1l9 1h10l9 1l10 1l10 1l10 1h10l9 1h10l10 1h10l11 1h10h10l10 1h11h10h10h11h10zM513 -145l442 444h-5l-6 1h-7h-6l-6 1h-7h-6
l-7 1h-7h-7h-8h-7h-7h-8h-8h-8h-8h-8h-8h-8l-9 -1h-8h-9l-9 -1h-9h-9l-10 -1l-9 -1h-10l-10 -1h-9l-10 -1l-21 -2l-20 -1l-10 -1l-9 -1l-9 -1h-9l-9 -1l-9 -1l-8 -1l-9 -1l-8 -1l-7 -1l-8 -1l-7 -1l-8 -1l-7 -1l-7 -1l-6 -1l-7 -1l-6 -1l-6 -2l-6 -1l-5 -1l-6 -1l-5 -1
l-5 -1l-5 -2l-5 -1l-4 -1l-4 -1l-4 -2l-4 -1l-3 -1l-4 -1l-3 -2l-3 -1l-3 -1l-2 -2l-3 -1l-3 -1l-2 -2l-3 -1l-2 -2l-2 -1l-2 -2l-1 -1l-2 -2l-2 -2l-1 -1l-1 -2l-2 -1l-1 -2l-1 -2v-2l-1 -1l-1 -2v-2v-2v-1v-2v-2v-2v-1v-1v-2v-1l1 -1v-1l1 -2v-1l1 -1l1 -2v-1l1 -1l1 -2
l1 -1l1 -1l1 -1l11 -9l5 -4l5 -3l5 -3l4 -3l3 -2l3 -1l1 -1l1 -1l1 -1l1 -1l1 -1l2 -1l1 -2l1 -1l1 -1l1 -1l1 -2v-1l1 -1l1 -2l1 -1v-2l1 -1l1 -1v-2l1 -1v-2v-1l1 -2v-1v-2v-2v-1v-2v-1v-2v-2v-1v-2v-2v-1l-1 -3l-1 -2l-1 -2l-2 -3l-2 -2l-2 -3l-2 -2l-2 -2l-3 -3l-3 -2
l-3 -2l-4 -3l-3 -2l-4 -3l-5 -2l-4 -2l-5 -3l-5 -2l-5 -3l-6 -2l-5 -3l-6 -2l-6 -3l-7 -2l-7 -2l-7 -3l-7 -2l-7 -3l-8 -2l-8 -3l-8 -2l-9 -3z" />
    <glyph glyph-name="uniE629" unicode="&#xe629;" 
d="M7 521h226l36 -4q11 -4 15 -8h-42v-13l65 -1l1 -1q1 0 2 -2l4 -2l2 -4t1 -4l-75 -1v-12h83q1 0 2.5 -1t4 -5t1.5 -9h-259v-14l263 1q1 -10 1 -14h-264v-13l265 1q2 -9 -2 -14l-263 -3v-12l259 1q0 -10 -7 -14l-252 -1v-12l244 1q-1 -13 -10 -15l-234 -1v-13l215 2
q-1 -2 -2.5 -4.5t-11 -6.5t-24.5 -4l-40 1v-12l65 -1q28 0 32 -11l-97 -2v-12h113q2 -1 3.5 -2.5t4.5 -5t3 -5.5l-261 -2v-14l267 2q10 -7 10 -14l-277 -2v-12h281q0 -1 0.5 -1.5t1.5 -3.5t0 -6l-283 -3v-12h283q2 -7 0 -13l-283 -1v-13h280q3 -8 -4 -15h-276v-13l271 1
q-1 -13 -7 -14h-96v-13h83q0 -1 -1.5 -3t-4 -6t-5.5 -5l-72 -1v-14l49 1q-1 -1 -4 -3.5t-21 -6.5t-46 -3l-213 1v441zM375 234v4q0 2 0.5 8t2 12.5t6 14t10.5 13.5t17 11.5t25 7.5q5 1 13.5 2.5t30 1.5t38.5 -4t31.5 -17.5t15.5 -34.5l2 -145l8 -25l-64 -2l-4 23
q-4 -4 -11 -9.5t-29 -12t-45 -0.5q-2 0 -6 0.5t-13.5 4.5t-17 10.5t-13.5 19.5t-6 31q-1 2 -0.5 4.5t2 10.5t5 15t11 14t18.5 11q63 18 82 18q2 0 4.5 1t8 4t7.5 6.5t-0.5 10.5t-13.5 15q-2 1 -5.5 1.5t-12.5 0.5t-16.5 -1.5t-13.5 -7.5t-6 -16zM586 302h62l-1 -24l10 10
q6 6 22 14.5t27 7.5q3 0 7.5 0.5t16.5 -1.5t22 -7.5t19.5 -19.5t13.5 -36l1 -164h-60l-1 148q-1 2 -2.5 4.5t-6.5 8.5t-11.5 9t-17 2t-22.5 -9q-3 0 -6 -3t-7.5 -17.5t-3.5 -36.5l1 -106l-61 1zM808 391l56 -1l4 -167l68 89h70l-64 -88l77 -140l-71 -2l-49 90l-30 -40l1 -49
h-60zM506 187q-1 -23 0 -28q-8 -23 -28 -27q-4 -3 -11 -6t-20.5 -2t-19.5 14q-6 18 13 25l16 5q15 4 31.5 10t18.5 9z" />
    <glyph glyph-name="uniE62A" unicode="&#xe62a;" 
d="M506 509l100 -54l-95 -58l-100 50zM511 573l223 -124l-100 -62q5 0 14 -1.5t36.5 -6.5t54 -11.5t62 -18.5t65 -26t58.5 -34.5t48 -44.5q3 -4 7 -11t12 -29.5t10 -44.5t-6 -52t-29 -56t-66 -54t-110 -48q-8 -2 -22 -5t-57.5 -10t-87 -11.5t-105 -6t-117 3.5t-117.5 19.5
t-112 39t-95 66t-72 96.5l144 5q5 -9 14 -23t41 -49t69 -60.5t98 -43t127 -9.5q6 0 14.5 0.5t37.5 3.5t54 8t62 14t63 21.5t57 31t43 42t22 54.5t-7 68q-1 2 -3 5.5t-10.5 14t-18.5 20.5t-28 24t-38 25.5t-49 23.5t-60.5 20.5t-73.5 13.5t-88 4l-175 99zM405 158l100 56
l101 -56l-105 -55zM524 688q71 -5 133.5 -15.5t138 -34.5t132.5 -70.5t84 -110.5h-154q-13 57 -64.5 101t-120.5 67t-149 27.5t-151.5 -10.5t-127.5 -54t-76 -96q-11 -33 -3 -65.5t33 -63t57.5 -53.5t70.5 -36.5t71 -12.5q8 0 28 3t34 4t36 -2l201 -107l-201 -118
q-23 13 -220 125q32 19 101 59q-51 6 -104.5 19.5t-105 36.5t-90 52t-58 69t-10.5 84q9 47 40.5 83.5t75.5 57.5t97.5 36.5t107 20t104.5 7t90 -2.5z" />
    <glyph glyph-name="uniE62B" unicode="&#xe62b;" 
d="M512 653q-72 0 -137.5 -28t-112.5 -75t-75 -112.5t-28 -137.5q0 -96 47 -177.5t128.5 -128.5t177.5 -47q72 0 137.5 28t112.5 75t75 112.5t28 137.5q0 32 -5.5 63.5t-16.5 60t-26 55t-35 49t-42.5 42.5t-49 35t-55 26t-60 16.5t-63.5 5.5zM496 178l-46 -46l-159 159
l52 52l107 -107l231 232l52 -52z" />
  </font>
</defs>
</svg>
